<svg xmlns="http://www.w3.org/2000/svg" width="25" height="25" class="icon" viewBox="0 0 1024 1024"><path d="M903.36 780.8a37.9 37.9 0 0 0 27.632 9.04 43.5 43.5 0 0 0 26.704-12.64A238.1 238.1 0 0 0 1024 618.144c0-133.696-121.6-252.944-277.184-272.816C709.072 200.784 552.512 96 373.872 96 167.6 96 0 238.736 0 413.088a277.65 277.65 0 0 0 81.04 194.224 37.28 37.28 0 0 0 28.544 11.744 37.504 37.504 0 0 0 27.632-63.232 206.4 206.4 0 0 1-60.8-142.736c0-133.696 132.608-242.096 296.512-242.096 131.68 0 253.232 72.272 291.92 172.544-162.064 15.36-288.224 134.608-288.224 274.624a239 239 0 0 0 2.768 36.128h-6.4a450 450 0 0 1-90.24-11.744c-6.4-.896-12.896-2.704-19.344-3.616a34.13 34.13 0 0 0-24.864 3.616L121.6 700.352a37.264 37.264 0 0 0-17.6 50.592 37.95 37.95 0 0 0 34.064 20.8 60.5 60.5 0 0 0 17.504-3.616l104.976-51.488 6.4.896a483.8 483.8 0 0 0 105.904 13.552c9.216 0 19.344 0 30.4-.896a283.5 283.5 0 0 0 69.072 86.72 353.6 353.6 0 0 0 227.456 78.592 399.8 399.8 0 0 0 94.848-14.4l78.272 42.464a42.56 42.56 0 0 0 18.416 4.512 39.25 39.25 0 0 0 34.08-19.872 37.33 37.33 0 0 0-15.648-51.488l-92.08-49.68a41.7 41.7 0 0 0-27.632-3.616 385.5 385.5 0 0 1-91.2 15.36c-133.52-.896-244.032-90.336-244.032-201.456s110.496-200.544 246.784-200.544c133.52 0 245.872 92.144 245.872 200.544a165.63 165.63 0 0 1-47.888 110.208 37.76 37.76 0 0 0 3.792 53.264"/><path d="M212.96 315.728a49.184 49.184 0 1 0 98.368 0 49.184 49.184 0 1 0-98.368 0M446.20799999999997 315.728a49.184 49.184 0 1 0 98.368 0 49.184 49.184 0 1 0-98.368 0M559.616 549.44a49.184 49.184 0 1 0 98.368 0 49.184 49.184 0 1 0-98.368 0M748.6080000000001 549.44a49.184 49.184 0 1 0 98.368 0 49.184 49.184 0 1 0-98.368 0"/></svg>