<svg xmlns="http://www.w3.org/2000/svg" width="25" height="25" class="icon" viewBox="0 0 1024 1024"><path d="M802.953 341.265C798.379 166.23 673.792 34.748 512.137 34.133c-161.929.615-286.516 132.096-291.09 307.064a154.9 154.9 0 0 0-29.696 117.623c-50.722 61.44-83.49 123.836-88.678 195.926-1.638 34.27 4.096 70.246 19.251 90.863 25.805 35.157 62.191 25.668 93.048-6.486a460 460 0 0 0 15.906 27.853c-47.036 32.905-64.307 95.164-36.181 141.312 23.21 38.093 70.519 59.665 133.666 59.665 87.927 0 146.773-19.183 183.637-51.2 37.82 32.29 96.324 51.2 183.637 51.2 63.147 0 110.456-21.572 133.598-59.597 28.126-46.216 10.923-108.475-36.181-141.38 5.94-9.557 11.264-18.773 15.974-27.853 30.857 32.086 67.243 41.643 93.048 6.486 15.223-20.685 20.958-56.662 19.32-90.112-5.19-72.841-37.957-135.305-88.747-196.608a154.97 154.97 0 0 0-29.696-117.624m49.152 343.586a152.2 152.2 0 0 1-19.252-32.426l-39.116-86.7-24.918 91.82c-7.782 28.74-24.849 63.488-53.999 103.424l-30.447 41.642 50.176 11.742c33.178 7.782 47.446 40.277 36.386 58.505-9.489 15.564-34.201 26.828-75.366 26.828-76.186 0-119.467-15.428-142.336-37.683a55.98 55.98 0 0 0-41.165-16.042 56.66 56.66 0 0 0-42.12 16.861c-22.119 21.436-65.331 36.864-141.585 36.864-41.097 0-65.878-11.264-75.298-26.828-11.06-18.16 3.208-50.723 36.386-58.505l50.176-11.742-30.447-41.642c-29.15-39.868-46.217-74.684-54-103.424l-24.917-91.82-39.116 86.7a152.2 152.2 0 0 1-19.252 32.426 157.5 157.5 0 0 1-1.092-26.01c4.164-58.367 35.294-113.322 83.9-169.096l13.858-15.974-8.055-19.525c-6.144-14.95-2.731-54.34 18.841-76.049l10.855-10.922-1.024-15.36c0-144.18 97.007-249.037 222.959-249.515 125.61.478 222.685 105.335 222.685 248.764 0 1.092-1.024 16.11-1.024 16.11l10.855 10.923c21.572 21.71 25.054 61.167 18.841 75.981l-8.123 19.593 13.926 15.974c48.47 55.57 79.599 110.524 83.9 169.438.41 8.533-.137 17.75-1.092 25.668"/></svg>